<?xml version="1.0" encoding="utf-8"?>
<!-- Generator: Adobe Illustrator 26.4.1, SVG Export Plug-In . SVG Version: 6.00 Build 0)  -->
<svg version="1.1" xmlns="http://www.w3.org/2000/svg" xmlns:xlink="http://www.w3.org/1999/xlink" x="0px" y="0px"
	 viewBox="0 0 467.4 257.6" style="enable-background:new 0 0 467.4 257.6;" xml:space="preserve">
<style type="text/css">
	.st0{fill:#230A4D;}
	.st1{fill:#FF7EC7;}
	.st2{fill:#FFFEDA;}
	.st3{fill:#00F3D1;}
	.st4{fill-rule:evenodd;clip-rule:evenodd;fill:#00F3D1;}
</style>
<g id="Layer_2">
</g>
<g id="Layer_1">
	<rect class="st0" width="467.4" height="257.6"/>
	<g>
		<g>
			<path class="st1" d="M186.9,159.5l-27.9,2.7v-11.1c0-0.3,0-0.5-0.1-0.8c-0.1-0.2-0.2-0.5-0.4-0.6c-0.2-0.2-0.4-0.3-0.6-0.4
				c-0.2-0.1-0.5-0.1-0.8-0.1c-0.3,0-0.5,0.1-0.8,0.2c-0.2,0.1-0.5,0.3-0.6,0.5c-0.2,0.2-0.3,0.5-0.4,0.7c-0.1,0.3-0.1,0.5-0.1,0.8
				v13c0,0.2,0,0.5,0.1,0.7c0.1,0.2,0.2,0.4,0.4,0.6c0.2,0.2,0.4,0.3,0.6,0.3c0.2,0.1,0.5,0.1,0.7,0.1l27.9-2.7v13.9v3.8l1.8-0.2
				c0.2,0,0.5-0.1,0.7-0.2c0.2-0.1,0.4-0.3,0.6-0.5c0.2-0.2,0.3-0.4,0.4-0.6c0.1-0.2,0.1-0.5,0.1-0.7v-17.7c0-0.2,0-0.5-0.1-0.7
				c-0.1-0.2-0.2-0.4-0.4-0.6c-0.2-0.2-0.4-0.3-0.6-0.3C187.3,159.5,187,159.5,186.9,159.5"/>
			<path class="st1" d="M237,113.7c0.4,0.3,0.9,0.4,1.4,0.4l20.6-3.9c0.5-0.1,1-0.4,1.3-0.8c0.3-0.4,0.5-0.9,0.5-1.4
				c-2.2-33.4-17.6-39-30.3-37.8c-3.7,0.2-7.3,1.2-10.7,2.9c-3.4,1.7-6.5,4-9.1,6.9c-10.8,12.1-13,32.8-13,48
				c0,22,3.8,36.5,11.9,44.2c0.2,0.2,0.4,0.3,0.6,0.4c0.2,0.1,0.5,0.1,0.7,0.1c0.2,0,0.5-0.1,0.7-0.2c0.2-0.1,0.4-0.3,0.6-0.5
				c0.3-0.4,0.5-0.9,0.5-1.4c0-0.5-0.2-1-0.5-1.3c-7.3-7-11-20.9-11-41.6c0-14.5,2-34.1,11.9-45.1c2.2-2.5,4.9-4.5,7.9-5.9
				c3-1.5,6.1-2.3,9.3-2.5c15.5-1.5,24.4,9.5,26.4,32.6l-16.8,3.1c-0.3-10.8-0.9-22.5-9-21.7c-5,0.5-7.9,3.2-9.9,9
				c-2.4,7-2.8,20.6-2.8,30v11c0,11.5,0.3,27.3,3.3,32.5c1.1,2.1,2.7,3.8,4.7,5c2,1.2,4.3,1.9,6.7,2.1c0.9,0,1.8,0,2.7-0.1
				c7.2-1.1,13.9-4.8,19-10.4c2.9-3.2,6.1-7.2,6.1-9.8v-29.9c0-0.5-0.2-0.9-0.5-1.2s-0.8-0.5-1.2-0.5l-24.2-0.1
				c-0.5,0-1.1,0.2-1.5,0.6c-0.2,0.2-0.4,0.5-0.5,0.7c-0.1,0.3-0.2,0.6-0.1,0.8v9.9c0,0.5,0.2,0.9,0.5,1.2c0.3,0.3,0.7,0.5,1.2,0.6
				l4,0.1v22.4c0,0.3,0,0.5,0.1,0.8c0.1,0.2,0.2,0.5,0.4,0.6c0.2,0.2,0.4,0.3,0.6,0.4c0.2,0.1,0.5,0.1,0.8,0.1
				c0.3,0,0.5-0.1,0.8-0.2c0.2-0.1,0.5-0.3,0.6-0.5c0.2-0.2,0.3-0.5,0.4-0.7c0.1-0.3,0.1-0.5,0.1-0.8v-24c0-0.5-0.1-0.9-0.4-1.2
				c-0.3-0.3-0.7-0.5-1.2-0.6l-4.1-0.1v-6.2l20.5,0v28.2c0,0.2-0.3,1.9-5,7c-4.2,4.6-11.8,9.4-18.5,9.1c-1.9-0.1-3.6-0.6-5.2-1.6
				c-1.5-0.9-2.8-2.3-3.6-3.8c-1.3-2.3-2.8-9.4-2.8-30.7v-11c0-5.3,0.2-21.5,2.6-28.8c1.6-4.7,3.4-5.7,6.3-6
				c4.8-0.5,5.4,11.1,5.4,19.6v0.8c0,0.3,0.1,0.5,0.2,0.8C236.5,113.3,236.7,113.5,237,113.7"/>
			<path class="st0" d="M146.8,191.2c0.4,0,0.8,0,1.2,0l-0.9-9.3l0.9,9.2L146.8,191.2z M148.4,151.7L148.4,151.7
				C148.4,151.7,148.4,151.7,148.4,151.7z"/>
			<path class="st1" d="M147,181.1l-7.6,0.8v-31.5c0-2.1,0.9-4.2,2.4-5.8c1.5-1.6,3.5-2.6,5.6-2.8l32.4-3.2c0.2,0,0.5-0.1,0.7-0.2
				c0.2-0.1,0.4-0.3,0.6-0.4c0.2-0.2,0.3-0.4,0.4-0.6c0.1-0.2,0.1-0.5,0.1-0.7v-16.9c0-0.5-0.2-1-0.6-1.3c-0.4-0.3-0.8-0.5-1.3-0.4
				L159,120v-19.8l27.9-2.7c0.2,0,0.5-0.1,0.7-0.2s0.4-0.3,0.6-0.5c0.2-0.2,0.3-0.4,0.4-0.7c0.1-0.2,0.1-0.5,0.1-0.7V77.8
				c0-0.2,0-0.5-0.1-0.7s-0.2-0.4-0.4-0.6c-0.2-0.2-0.4-0.3-0.6-0.3c-0.2-0.1-0.5-0.1-0.7-0.1L137.5,81c-0.5,0-1,0.3-1.3,0.7
				c-0.4,0.4-0.5,0.9-0.5,1.4v50.1c0,0.3,0,0.5,0.1,0.8c0.1,0.2,0.2,0.5,0.4,0.6c0.2,0.2,0.4,0.3,0.6,0.4c0.2,0.1,0.5,0.1,0.8,0.1
				c0.3,0,0.5-0.1,0.8-0.2c0.2-0.1,0.5-0.3,0.6-0.5c0.2-0.2,0.3-0.5,0.4-0.7c0.1-0.3,0.1-0.5,0.1-0.8V84.7l45.6-4.5V94l-27.9,2.7
				c-0.2,0-0.5,0.1-0.7,0.2c-0.2,0.1-0.4,0.3-0.6,0.5c-0.2,0.2-0.3,0.4-0.4,0.7c-0.1,0.2-0.1,0.5-0.1,0.7v23.5c0,0.5,0.2,1,0.5,1.3
				c0.4,0.3,0.8,0.5,1.3,0.4l20.9-2.1v13.2l-31,3.1c-3,0.3-5.9,1.8-8,4.2c-2.1,2.4-3.3,5.4-3.3,8.4v33.5c0,0.2,0,0.5,0.1,0.7
				c0.1,0.2,0.2,0.4,0.4,0.6c0.2,0.2,0.4,0.3,0.6,0.3c0.2,0.1,0.5,0.1,0.7,0.1l9.5-0.9c0.2,0,0.5-0.1,0.7-0.2
				c0.2-0.1,0.4-0.3,0.6-0.5c0.2-0.2,0.3-0.4,0.4-0.7c0.1-0.2,0.1-0.5,0.1-0.7c0-0.2,0-0.5-0.1-0.7c-0.1-0.2-0.2-0.4-0.4-0.6
				c-0.2-0.2-0.4-0.3-0.6-0.3C147.6,181.2,147.3,181.2,147,181.1"/>
			<path class="st1" d="M409.4,129.7c-0.3-10.5-5.8-18.2-14.5-20.8c-4.3-1.2-8.7-1.9-13.2-2.3c-11.7-1.5-22.8-2.9-25.2-15.9
				c-0.7-3.2-0.7-6.6,0.1-9.9s2.3-6.5,4.5-9.2c2.4-3,5.3-5.5,8.7-7.4c3.3-1.8,7-3,10.6-3.3c14.4-1.4,20.7,8.1,23.5,17l-11.1,6.3
				c-1.1-3.9-3.1-7.8-7.6-9.1c-2.5-0.8-5.3-0.5-7.8,0.7c-2.5,1.2-4.5,3.4-5.6,5.9c-1.3,2.8-1.6,5.9-0.8,8.7c0.8,2.8,2.7,5.1,5.2,6.4
				c0.4,0.3,0.9,0.3,1.4,0.2c0.5-0.1,1-0.4,1.3-0.9c0.1-0.2,0.2-0.5,0.3-0.7c0.1-0.2,0.1-0.5,0-0.7c0-0.2-0.1-0.5-0.3-0.7
				c-0.1-0.2-0.3-0.3-0.5-0.5c-1.8-0.9-3.1-2.5-3.7-4.5c-0.6-2-0.4-4.2,0.6-6.2c0.7-1.7,1.9-3,3.5-3.9c1.6-0.8,3.4-1,5-0.5
				c3.7,1.1,5.1,5.4,6,9c0.1,0.3,0.2,0.5,0.4,0.7c0.2,0.2,0.4,0.3,0.7,0.4c0.2,0.1,0.5,0.1,0.8,0.1c0.3,0,0.5-0.1,0.8-0.2l14.7-8.4
				c0.4-0.2,0.7-0.6,0.9-1c0.2-0.4,0.2-0.9,0.1-1.3c-4.2-14.8-14-22.2-27.6-20.8c-4.2,0.4-8.4,1.7-12.3,3.9c-3.9,2.2-7.3,5.1-10,8.6
				c-2.5,3.2-4.3,6.9-5.2,10.8c-0.9,3.9-1,7.8-0.2,11.5c2.8,15.4,15.7,17,28.1,18.5c4.3,0.4,8.4,1.2,12.5,2.3
				c3.7,1.2,6.8,3.5,8.9,6.7c2.2,3.1,3.3,6.9,3.3,10.9c0.3,9.8-4.7,19.4-12.5,24c-4.4,2.3-9.2,3.7-13.9,4.1
				c-18.4,1.8-22.9-11.5-25.4-20.2l11.9-6c1.2,4.7,3.4,10.9,9.9,12.2c1.7,0.4,3.5,0.3,5.2-0.1c1.8-0.5,3.4-1.3,4.8-2.5
				c1.5-1.3,2.7-3,3.5-4.8c0.8-1.8,1.2-3.7,1.2-5.7c0-7.5-4.6-10.3-8.8-11.9c-0.4-0.2-0.9-0.1-1.4,0.1c-0.5,0.2-0.8,0.6-1.1,1
				c-0.2,0.5-0.3,1-0.1,1.4s0.5,0.8,0.9,1c3.5,1.4,6.6,3.3,6.6,8.8c0.1,1.3-0.2,2.7-0.7,3.9s-1.4,2.4-2.4,3.3
				c-1,0.8-2.1,1.4-3.3,1.7c-1.2,0.3-2.4,0.3-3.5,0.1c-4.9-1-6.4-6.1-7.7-11.7c0-0.3-0.1-0.5-0.3-0.7c-0.2-0.2-0.4-0.4-0.6-0.4
				c-0.2-0.1-0.5-0.1-0.8-0.1c-0.3,0-0.5,0.1-0.8,0.2l-15.7,7.9c-0.4,0.2-0.8,0.6-1,1c-0.2,0.4-0.3,0.9-0.2,1.3l0.1,0.4
				c2.5,9.1,7.3,26.1,29.5,23.9c5.4-0.4,10.7-2,15.6-4.6c9.1-5.3,15-16.5,14.6-27.8"/>
			<path class="st1" d="M321.1,64.4c-0.1-0.4-0.3-0.7-0.6-1c-0.3-0.2-0.7-0.3-1.1-0.3l-20.3,2c-0.4,0.1-0.8,0.2-1.2,0.5
				c-0.3,0.3-0.6,0.7-0.7,1.1L282,131l-9.1,39.2c0,0.3,0,0.6,0,0.8c0.1,0.3,0.2,0.5,0.4,0.7c0.2,0.2,0.4,0.4,0.6,0.5
				c0.3,0.1,0.5,0.1,0.8,0.1l19.8-1.9c0.3-0.1,0.5-0.3,0.7-0.5c0.2-0.2,0.4-0.4,0.5-0.7c0,0,0-0.4,0.1-0.5l5.6-30.8
				c0.9-4.9,2.2-6.5,7.3-7l8.8-0.9c0.2,0,0.4-0.1,0.6-0.3c0.2-0.2,0.5-0.4,0.6-0.6c0-0.2,0.4-0.6,0.4-0.8v-0.8l-8.2-43.1
				c-0.1-0.4-0.3-0.7-0.6-1c-0.3-0.2-0.7-0.3-1.2-0.3c-0.4,0-0.9,0.2-1.2,0.5c-0.3,0.3-0.6,0.7-0.7,1.1l-6,32.8
				c-0.1,0.3-0.1,0.5,0,0.8c0.1,0.2,0.2,0.5,0.3,0.7c0.2,0.2,0.3,0.3,0.6,0.5c0.2,0.1,0.5,0.2,0.7,0.2c0.2,0,0.5,0,0.7-0.1
				c0.2-0.1,0.5-0.2,0.7-0.3c0.2-0.2,0.4-0.4,0.5-0.6c0.1-0.2,0.2-0.5,0.3-0.7l4.1-22.6l5.8,31.1l-6.3,0.6c-7.7,0.8-10,4.5-11,10.4
				l-5.3,29.4l-15.4,1.5l8.6-36.6l14.7-63l17.3-1.7l14.9,59.9l8.6,35l-15.2,1.5l-2.4-12.8l-1.2-7.1c-0.1-0.5-0.4-0.8-0.8-1.1
				c-0.4-0.2-0.9-0.3-1.4-0.3l-9.7,1c-0.3,0-0.5,0.1-0.8,0.2c-0.3,0.1-0.5,0.3-0.7,0.5c-0.2,0.2-0.4,0.4-0.5,0.7
				c-0.1,0.3-0.2,0.5-0.2,0.8c0,0.3,0.1,0.5,0.2,0.8c0.1,0.2,0.3,0.4,0.5,0.6s0.4,0.3,0.7,0.3c0.3,0.1,0.5,0.1,0.8,0l8.3-0.8l1,5.7
				l2.7,14.1c0,0.1,0.2,0.4,0.2,0.5c0.1,0.2,0.2,0.4,0.4,0.6c0.2,0.1,0.5,0.4,0.7,0.3l19.6-1.9c0.3,0,0.6-0.1,0.8-0.3
				c0.3-0.2,0.5-0.3,0.7-0.6c0.2-0.5,0.3-1.1,0.3-1.6l-9.1-37.3L321.1,64.4z"/>
			<path class="st1" d="M121.5,82.7l-18.4,1.8c-0.4,0.1-0.8,0.2-1.2,0.5c-0.3,0.3-0.6,0.7-0.7,1.1l-9.9,39c-0.1,0.2-0.1,0.5,0,0.7
				c0,0.2,0.1,0.5,0.2,0.7c0.1,0.2,0.3,0.4,0.5,0.5c0.2,0.1,0.4,0.2,0.7,0.3c0.2,0,0.5,0,0.7,0c0.2-0.1,0.5-0.2,0.7-0.3
				c0.2-0.1,0.4-0.3,0.6-0.5c0.1-0.2,0.3-0.5,0.3-0.7l9.5-37.6l14.4-1.4c-3.1,12.2-17.1,66.1-18.5,71.3c-0.1,0.7-0.5,1.4-1,2
				c-0.5,0.5-1.2,0.9-1.9,1c-1.3,0.1-2.3-0.8-2.7-2.6c-2-7.3-19-69.2-19.1-69.9c-0.1-0.4-0.3-0.7-0.7-0.9c-0.3-0.2-0.7-0.3-1.1-0.3
				l-19.8,1.9c-0.3,0-0.6,0.1-0.8,0.3c-0.2,0.2-0.5,0.3-0.6,0.6c-0.3,0.5-0.5,1.1-0.4,1.6l23.9,98.6c0,0.2,0.1,0.4,0.2,0.5v0.1
				l0.4,0.4l0.1,0c0,0.1,0.3,0.3,0.4,0.3c0.2,0,0.4,0,0.6-0.1l17-1.7c0.5-0.1,0.9-0.4,1.2-0.7c0.3-0.4,0.5-0.8,0.5-1.3
				c0-0.5-0.2-0.9-0.5-1.2c-0.3-0.3-0.7-0.5-1.2-0.5l-15.5,1.5l-23-94.9l15.9-1.6c2.6,9.2,16.9,61.7,18.7,68.5
				c0.2,1.5,1,2.9,2.2,3.8s2.7,1.4,4.2,1.2c1.6-0.2,3-1,4.2-2.1c1.2-1.1,2-2.6,2.4-4.1c1.6-5.9,19-73.1,19.1-73.7
				c0.1-0.6,0-1.1-0.3-1.6c-0.2-0.2-0.4-0.4-0.6-0.5C122,82.7,121.8,82.7,121.5,82.7"/>
		</g>
		<path class="st2" d="M53.4,227.8c-0.3-2.2,1.3-4.2,3.5-4.5l0,0c2.2-0.3,4.2,1.3,4.5,3.5l0,0c0.3,2.2-1.3,4.2-3.5,4.5l0,0
			c-0.2,0-0.3,0-0.5,0l0,0C55.4,231.3,53.7,229.8,53.4,227.8z M81.2,224.3c-0.3-2.2,1.3-4.2,3.5-4.5l0,0c2.2-0.3,4.2,1.3,4.5,3.5
			l0,0c0.3,2.2-1.3,4.2-3.5,4.5l0,0c-0.2,0-0.3,0-0.5,0l0,0C83.2,227.8,81.5,226.4,81.2,224.3z M109,220.9c-0.3-2.2,1.3-4.2,3.5-4.5
			l0,0c2.2-0.3,4.2,1.3,4.5,3.5l0,0c0.3,2.2-1.3,4.2-3.5,4.5l0,0c-0.2,0-0.3,0-0.5,0l0,0C111,224.4,109.3,222.9,109,220.9z
			 M28.7,222.9C28.7,222.9,28.7,222.9,28.7,222.9L28.7,222.9c-1.7-1.5-1.8-4-0.4-5.7l0,0c1.5-1.7,4-1.8,5.7-0.3l0,0
			c1.6,1.5,1.8,4,0.3,5.6l0,0c-0.8,0.9-1.9,1.4-3,1.4l0,0C30.4,223.9,29.5,223.5,28.7,222.9z M16.8,194.9c0-2.2,1.8-4,4-4l0,0
			c2.2,0,4,1.8,4,4l0,0c0,2.2-1.8,4-4,4l0,0C18.6,198.9,16.8,197.1,16.8,194.9z M16.8,166.9c0-2.2,1.8-4,4-4l0,0c2.2,0,4,1.8,4,4
			l0,0c0,2.2-1.8,4-4,4l0,0C18.6,170.9,16.8,169.1,16.8,166.9z M16.8,138.9c0-2.2,1.8-4,4-4l0,0c2.2,0,4,1.8,4,4l0,0
			c0,2.2-1.8,4-4,4l0,0C18.6,142.9,16.8,141.1,16.8,138.9z M16.8,110.9c0-2.2,1.8-4,4-4l0,0c2.2,0,4,1.8,4,4l0,0c0,2.2-1.8,4-4,4
			l0,0C18.6,114.9,16.8,113.1,16.8,110.9z M21.4,86.9c-2.1-0.8-3.1-3.1-2.3-5.2l0,0c0.8-2.1,3.1-3.1,5.2-2.3l0,0
			c2.1,0.8,3.1,3.1,2.3,5.2l0,0c-0.6,1.6-2.1,2.6-3.8,2.6l0,0C22.3,87.2,21.8,87.1,21.4,86.9z M38.6,65.7c-0.7-2.1,0.5-4.4,2.6-5
			l0,0c2.1-0.7,4.4,0.5,5,2.6l0,0c0.7,2.1-0.5,4.4-2.6,5l0,0c-0.4,0.1-0.8,0.2-1.2,0.2l0,0C40.7,68.5,39.1,67.4,38.6,65.7z M66.1,61
			c-0.3-2.2,1.3-4.2,3.5-4.5l0,0c2.2-0.3,4.2,1.3,4.5,3.5l0,0c0.3,2.2-1.3,4.2-3.5,4.5l0,0c-0.2,0-0.3,0-0.5,0l0,0
			C68.1,64.5,66.3,63,66.1,61z M93.9,57.6c-0.3-2.2,1.3-4.2,3.5-4.5l0,0c2.2-0.3,4.2,1.3,4.5,3.5l0,0c0.3,2.2-1.3,4.2-3.5,4.5l0,0
			c-0.2,0-0.3,0-0.5,0l0,0C95.9,61.1,94.1,59.6,93.9,57.6z"/>
		<g>
			<path class="st2" d="M345.1,30.5c-1.1,0-2.1-0.4-2.8-1.2c-0.2-0.2-0.3-0.4-0.5-0.6c-0.1-0.2-0.3-0.5-0.4-0.7
				c-0.1-0.2-0.2-0.5-0.2-0.8c-0.1-0.3-0.1-0.5-0.1-0.8c0-0.3,0-0.5,0.1-0.8c0-0.3,0.1-0.5,0.2-0.8c0.1-0.2,0.2-0.5,0.4-0.7
				c0.2-0.2,0.3-0.4,0.5-0.6c0.7-0.7,1.8-1.2,2.8-1.2s2.1,0.4,2.8,1.2c0.2,0.2,0.3,0.4,0.5,0.6c0.1,0.2,0.3,0.5,0.4,0.7
				c0.1,0.2,0.2,0.5,0.2,0.8s0.1,0.5,0.1,0.8c0,0.3,0,0.5-0.1,0.8c0,0.3-0.1,0.5-0.2,0.8c-0.1,0.2-0.2,0.5-0.4,0.7
				c-0.1,0.2-0.3,0.4-0.5,0.6c-0.2,0.2-0.4,0.3-0.6,0.5c-0.2,0.1-0.5,0.3-0.7,0.4c-0.2,0.1-0.5,0.2-0.8,0.2
				C345.7,30.5,345.4,30.5,345.1,30.5z"/>
			<path class="st2" d="M369.6,188.7c-0.3-2.2,1.3-4.2,3.5-4.5l0,0c2.2-0.3,4.2,1.3,4.5,3.5l0,0c0.3,2.2-1.3,4.2-3.5,4.5l0,0
				c-0.2,0-0.3,0-0.5,0l0,0C371.6,192.2,369.9,190.7,369.6,188.7z M397.9,185.2c-0.3-2.2,1.3-4.2,3.5-4.5l0,0
				c2.2-0.3,4.2,1.3,4.5,3.5l0,0c0.3,2.2-1.3,4.2-3.5,4.5l0,0c-0.2,0-0.3,0-0.5,0l0,0C399.9,188.7,398.1,187.2,397.9,185.2z
				 M426.1,181.1c-1-2-0.2-4.4,1.7-5.4l0,0c2-1,4.4-0.2,5.4,1.7l0,0c1,2,0.2,4.4-1.7,5.4l0,0l0,0l0,0c-0.6,0.3-1.2,0.4-1.8,0.4l0,0
				C428.2,183.3,426.8,182.5,426.1,181.1z M445.4,161.2c-2.2-0.4-3.6-2.5-3.2-4.7l0,0c0.4-2.2,2.5-3.6,4.7-3.2l0,0
				c2.2,0.4,3.6,2.5,3.2,4.7l0,0l0,0l0,0c-0.4,1.9-2,3.3-3.9,3.3l0,0C445.9,161.3,445.6,161.2,445.4,161.2z M442.7,128.8
				c0-2.2,1.8-4,4-4l0,0c2.2,0,4,1.8,4,4l0,0c0,2.2-1.8,4-4,4l0,0C444.4,132.8,442.7,131,442.7,128.8z M442.7,100.3c0-2.2,1.8-4,4-4
				l0,0c2.2,0,4,1.8,4,4l0,0c0,2.2-1.8,4-4,4l0,0C444.4,104.3,442.7,102.5,442.7,100.3z M442.7,71.8c0-2.2,1.8-4,4-4l0,0
				c2.2,0,4,1.8,4,4l0,0c0,2.2-1.8,4-4,4l0,0C444.4,75.8,442.7,74.1,442.7,71.8z M442.2,44.2c-0.4-2.2,1-4.3,3.2-4.7l0,0
				c2.2-0.4,4.3,1,4.7,3.2l0,0c0.4,2.2-1,4.3-3.2,4.7l0,0c-0.3,0-0.5,0.1-0.8,0.1l0,0C444.2,47.4,442.5,46.1,442.2,44.2z
				 M369.4,23.5c-0.3-2.2,1.3-4.2,3.5-4.5l0,0c2.2-0.3,4.2,1.3,4.5,3.5l0,0c0.3,2.2-1.3,4.2-3.5,4.5l0,0c-0.2,0-0.3,0-0.5,0l0,0
				C371.4,27,369.7,25.5,369.4,23.5z M427.7,25L427.7,25c-2-1-2.8-3.4-1.8-5.4l0,0c1-2,3.4-2.8,5.4-1.8l0,0c2,1,2.8,3.4,1.8,5.4l0,0
				c-0.7,1.4-2.1,2.2-3.6,2.2l0,0C428.9,25.4,428.3,25.3,427.7,25z M397.7,20c-0.3-2.2,1.3-4.2,3.5-4.5l0,0c2.2-0.3,4.2,1.3,4.5,3.5
				l0,0c0.3,2.2-1.3,4.2-3.5,4.5l0,0c-0.2,0-0.3,0-0.5,0l0,0C399.7,23.5,398,22,397.7,20z"/>
			<path class="st2" d="M345.3,195.7c-0.3,0-0.5,0-0.8-0.1c-0.3,0-0.5-0.1-0.8-0.2s-0.5-0.2-0.7-0.4c-0.2-0.2-0.4-0.3-0.6-0.5
				c-0.2-0.2-0.3-0.4-0.5-0.6c-0.1-0.2-0.3-0.4-0.4-0.7c-0.1-0.2-0.2-0.5-0.2-0.8c0-0.2-0.1-0.5-0.1-0.8s0-0.5,0.1-0.8
				c0-0.2,0.1-0.5,0.2-0.8c0.1-0.2,0.2-0.5,0.4-0.7c0.2-0.2,0.3-0.4,0.5-0.6c0.2-0.2,0.4-0.3,0.6-0.5c0.2-0.1,0.4-0.3,0.7-0.4
				c0.2-0.1,0.5-0.2,0.8-0.2c1.3-0.3,2.7,0.2,3.6,1.1c0.2,0.2,0.3,0.4,0.5,0.6c0.1,0.2,0.3,0.5,0.4,0.7c0.1,0.2,0.2,0.5,0.2,0.8
				c0,0.3,0.1,0.5,0.1,0.8s0,0.5-0.1,0.8c0,0.3-0.1,0.5-0.2,0.8c-0.1,0.2-0.2,0.5-0.4,0.7c-0.2,0.2-0.3,0.4-0.5,0.6
				C347.4,195.3,346.3,195.7,345.3,195.7z"/>
		</g>
		<g>
			<path class="st3" d="M158.9,63.3c-0.5,0.1-1,0-1.5-0.3c-0.2-0.1-0.4-0.2-0.5-0.4s-0.2-0.4-0.2-0.7V27.7c0-0.2,0-0.5,0.2-0.7
				c0.1-0.2,0.3-0.4,0.5-0.5c0.5-0.3,1-0.4,1.5-0.5c0.5,0,0.9,0,1.4,0.2c0.4,0.2,0.8,0.5,1,0.8c0.4,0.4,0.7,0.9,0.9,1.4l12.6,23.8
				V26.2c0-0.2,0.1-0.5,0.2-0.7c0.1-0.2,0.3-0.4,0.5-0.5c0.5-0.3,1-0.4,1.5-0.5c0.5,0,1,0,1.5,0.2c0.2,0.1,0.4,0.2,0.5,0.4
				c0.1,0.2,0.2,0.4,0.2,0.6v34.2c0,0.2-0.1,0.5-0.2,0.7c-0.1,0.2-0.3,0.4-0.5,0.5c-0.5,0.3-1,0.5-1.5,0.5c-0.5,0-1.1-0.1-1.5-0.4
				c-0.5-0.3-0.9-0.8-1.1-1.3L161,35.5v26.1c0,0.2,0,0.5-0.2,0.7c-0.1,0.2-0.3,0.4-0.5,0.5C159.9,63,159.4,63.2,158.9,63.3"/>
			<path class="st3" d="M202.4,59.7c-0.5,0.1-0.9,0-1.3-0.3c-0.2-0.1-0.4-0.3-0.5-0.4c-0.1-0.2-0.2-0.4-0.1-0.6V24.1
				c0-0.2,0-0.5,0.1-0.7c0.1-0.2,0.3-0.4,0.5-0.5c0.4-0.3,0.9-0.4,1.3-0.5l18.2-1.5c0.2,0,0.5,0,0.7,0.1c0.2,0.1,0.4,0.2,0.5,0.4
				c0.2,0.4,0.3,0.8,0.3,1.2c0,0.5-0.1,1-0.4,1.4c-0.1,0.2-0.3,0.4-0.5,0.5c-0.2,0.1-0.4,0.2-0.6,0.2l-15.8,1.3v13l8-0.7
				c0.2,0,0.4,0,0.6,0.1s0.4,0.2,0.5,0.4c0.2,0.4,0.4,0.8,0.4,1.2c0,0.4-0.1,0.8-0.3,1.2c-0.1,0.2-0.3,0.4-0.5,0.5
				c-0.2,0.1-0.4,0.2-0.6,0.2l-8,0.7v13.1l15.8-1.3c0.2,0,0.4,0,0.6,0.1c0.2,0.1,0.4,0.2,0.5,0.4c0.3,0.4,0.4,0.9,0.4,1.4
				c0,0.4-0.1,0.9-0.3,1.3c-0.1,0.2-0.3,0.4-0.5,0.5c-0.2,0.1-0.4,0.2-0.7,0.2L202.4,59.7z"/>
			<path class="st3" d="M250.7,56.1c-1.9,0.2-3.8,0-5.6-0.6c-1.7-0.6-3-1.7-3.9-3.2c-1.1-1.9-1.6-4.2-1.5-6.5V30.4
				c-0.1-2.3,0.4-4.6,1.5-6.7c0.9-1.6,2.3-3,3.9-3.8c1.8-0.9,3.7-1.4,5.6-1.6c1.9-0.2,3.8,0,5.6,0.6c1.7,0.6,3,1.7,4,3.2
				c1.1,1.9,1.6,4.2,1.5,6.5v15.4c0.1,2.3-0.4,4.6-1.5,6.7c-0.9,1.6-2.3,3-4,3.8C254.5,55.4,252.6,55.9,250.7,56.1L250.7,56.1z
				 M250.7,52.2c0.9,0,1.8-0.2,2.7-0.6s1.6-0.9,2.3-1.6c0.6-0.8,1.1-1.7,1.4-2.7c0.3-1,0.4-2,0.3-3V29c0.1-1,0-2-0.3-2.9
				c-0.3-0.9-0.8-1.8-1.4-2.5c-0.7-0.6-1.5-1-2.3-1.2s-1.8-0.3-2.7-0.2c-0.9,0-1.8,0.2-2.6,0.6c-0.8,0.4-1.6,0.9-2.3,1.6
				c-0.6,0.8-1.1,1.7-1.4,2.7c-0.3,1-0.4,2-0.3,3v15.4c-0.1,1,0,2,0.3,2.9c0.3,0.9,0.8,1.8,1.4,2.5c0.7,0.6,1.4,1,2.3,1.2
				C248.9,52.3,249.8,52.3,250.7,52.2L250.7,52.2z"/>
			<path class="st3" d="M284.8,52.9c-0.5,0.1-1,0-1.5-0.3c-0.2-0.1-0.4-0.2-0.5-0.4c-0.1-0.2-0.2-0.4-0.2-0.7V17.3
				c0-0.2,0-0.5,0.2-0.7c0.1-0.2,0.3-0.4,0.5-0.5c0.5-0.3,1-0.4,1.5-0.5c0.5,0,0.9,0,1.4,0.2c0.4,0.2,0.8,0.5,1,0.8
				c0.4,0.4,0.7,0.9,0.9,1.4l12.7,23.8V15.8c0-0.2,0.1-0.5,0.2-0.7c0.1-0.2,0.3-0.4,0.5-0.5c0.5-0.3,1-0.4,1.5-0.5
				c0.5,0,1,0,1.5,0.2c0.2,0.1,0.4,0.2,0.5,0.4c0.1,0.2,0.2,0.4,0.2,0.6v34.2c0,0.2,0,0.5-0.2,0.7c-0.1,0.2-0.3,0.4-0.5,0.5
				c-0.5,0.3-1,0.5-1.5,0.5c-0.5,0-1.1-0.1-1.5-0.4c-0.5-0.3-0.9-0.8-1.1-1.3l-13.3-24.6v26.1c0,0.2-0.1,0.5-0.2,0.7
				c-0.1,0.2-0.3,0.4-0.5,0.5C285.8,52.6,285.3,52.8,284.8,52.9"/>
		</g>
		<g>
			<path class="st4" d="M297.7,195.5c-0.1-0.7-0.1-1.3,0-2c-1.5,2.9-2.1,6.2-1.6,9.5c0.1,1.1,0.4,2.2,0.9,3.1c0.2,0.4,0.6,0.8,1,1
				c0.4,0.2,0.9,0.3,1.4,0.2c1.4-0.3,2.6-1.1,3.5-2.2c1-1.2,1.9-2.5,2.6-3.8c-1.4,0-2.8-0.2-4.1-0.7c-1-0.4-1.9-1.1-2.5-2
				C298.2,197.6,297.8,196.5,297.7,195.5L297.7,195.5z M306.4,189.9c-0.1-0.2-0.3-0.4-0.5-0.5c-0.2-0.1-0.5-0.2-0.7-0.2
				c-0.6,0.2-1.1,0.4-1.6,0.8c-0.5,0.4-0.9,0.8-1.2,1.4c-0.7,1.1-1,2.4-0.8,3.7c0,0.4,0.1,0.8,0.3,1.2c0.2,0.4,0.6,0.6,0.9,0.8
				c1.3,0.4,2.7,0.6,4,0.4c0.2-0.8,0.4-1.5,0.5-2.3c0.1-0.8,0.1-1.6,0-2.4C307.3,191.7,306.9,190.8,306.4,189.9L306.4,189.9z
				 M253.4,189.6c-0.3,0.2-0.6,0.3-0.9,0.4h-0.5l-0.5-0.2c-0.2-0.1-0.4-0.3-0.6-0.4c-0.2-0.2-0.3-0.4-0.4-0.6c-0.2-0.5-0.2-1,0-1.4
				l0,0l0.2-0.4c0.1-0.2,0.3-0.4,0.4-0.6c0.2-0.2,0.4-0.3,0.6-0.4c0.5-0.2,1-0.2,1.4,0l0,0c0.2,0.1,0.4,0.3,0.6,0.4
				c0.2,0.2,0.3,0.4,0.4,0.6c0.2,0.5,0.2,1,0,1.4l0,0l-0.2,0.3C253.8,189.1,253.6,189.4,253.4,189.6L253.4,189.6z M233.9,214.6
				c0.3-0.5,0.5-1.2,0.4-1.8c-0.5,0.3-1.1,0.6-1.5,1.1c-0.2,0.2-0.3,0.4-0.4,0.6c-0.1,0.2-0.1,0.5-0.1,0.8c0,0.1,0,0.1,0,0.2h0.2
				c0.3,0,0.6-0.1,0.8-0.2C233.5,215.1,233.7,214.9,233.9,214.6L233.9,214.6z M202.8,202.3c-1.2-0.7-2.6-0.9-4-0.7
				c-3.2,0.9-5.9,3-7.7,5.8c-1.9,2.6-2.8,5.8-2.6,8.9c0.1,1.3,0.5,2.5,1.2,3.6c0.2,0.3,0.5,0.5,0.9,0.6c0.3,0.1,0.7,0.2,1.1,0.2
				c2.5-0.8,4.7-2.3,6.3-4.4c3-3.4,5.6-7.1,7.8-11.1C205.1,204,204,203,202.8,202.3L202.8,202.3z M170.1,232.4
				c-6.8,5.7-14.4,10.2-21.2,11c-1.6,0.2-3.2,0-4.7-0.4c-1.5-0.5-2.9-1.3-4.1-2.4c-2.4-2.4-3.8-5.5-4.1-8.8
				c-1.5-11.8,2.7-24.6,9.1-35.2c7.5-12.4,18.1-21.8,26.1-22.8c1.4-0.2,2.9-0.1,4.3,0.3c1.4,0.4,2.7,1.1,3.8,2
				c2.2,2.1,3.6,4.9,3.8,7.9c0.2,2.7-0.3,5.3-1.5,7.7c-1.4,3.1-3.3,5.9-5.6,8.4l0,0c-0.4,0.3-0.8,0.6-1.3,0.6
				c-0.5,0-0.9-0.2-1.3-0.5l0,0c-0.2-0.2-0.3-0.4-0.4-0.6c-0.1-0.2-0.1-0.5-0.1-0.7c0-0.2,0-0.5,0.1-0.7c0.1-0.2,0.2-0.4,0.4-0.6
				c0.3-0.3,6.8-7.3,6.1-12.9c-0.1-2.1-1-4-2.5-5.5c-0.7-0.6-1.5-1-2.4-1.3c-0.9-0.3-1.8-0.3-2.7-0.2c-7.1,0.9-16.6,9.5-23.5,21
				c-5.9,9.9-9.8,21.8-8.4,32.7c0.1,2.5,1.2,4.8,2.9,6.6c0.8,0.7,1.7,1.2,2.7,1.6c1,0.3,2,0.4,3.1,0.3c6-0.7,13-5,19.4-10.4
				c8.7-7.2,16.1-16.3,18.3-21.2c0-0.1,0-0.1,0-0.2c0.1-0.2,0.3-0.4,0.5-0.6c0.4-0.8,0.9-1.5,1.4-2.2c2.4-3.6,6.1-6.2,10.3-7.3
				c2.4-0.3,4.8,0.2,6.8,1.5c1,0.6,1.9,1.4,2.6,2.2l0.7-1.4c0.5-1,0.9-1.9,1.3-2.8c0.2-0.4,0.5-0.8,1-1c0.4-0.2,0.9-0.2,1.4-0.1l0,0
				c0.5,0.2,0.8,0.5,1.1,0.9c0.2,0.5,0.2,1,0,1.4l0,0c-1.3,4.1-2.1,8.4-2.6,12.7c-0.4,2.1-0.1,4.4,0.9,6.3c0.1,0.2,0.3,0.3,0.5,0.4
				c0.3,0.1,0.6,0.1,0.9,0c1.5-0.2,2.9-1.6,4.4-4c2-3.4,3.8-6.9,5.4-10.6l0,0c0-0.1,0-0.1,0-0.2l3.6-8c0.2-0.4,0.5-0.7,0.8-0.9l0,0
				c0.3-0.2,0.7-0.3,1.1-0.2l0,0c0.4,0.1,0.8,0.3,1.1,0.5c0.3,0.3,0.5,0.7,0.5,1.1c0.2,1.9,0.8,3.8,1.7,5.5c0.8,1.5,1.8,3,2.8,4.4
				l0,0l0.3,0.4l1.2,1.8c1.5-0.7,3-1.5,4.4-2.5c1.7-1.1,3-2.7,3.8-4.5l0,0c0.1-0.2,0.3-0.5,0.5-0.6c1.5-3.8,3.2-7.1,3.5-7.7
				c0.1-0.2,0.3-0.4,0.5-0.6c0.2-0.2,0.4-0.3,0.7-0.4c0.5-0.1,1-0.1,1.4,0.1l0,0c0.4,0.2,0.8,0.6,0.9,1.1c0.1,0.2,0.1,0.5,0.1,0.7
				c0,0.2-0.1,0.5-0.2,0.7l0,0c-0.3,0.5-6.6,12.8-5.9,17.8c0.1,0.5,0.3,1.1,0.7,1.5c0.2,0.1,0.4,0.2,0.6,0.3c0.2,0.1,0.4,0.1,0.7,0
				c2.4-0.7,4.5-2.2,6-4.3c2.6-3.2,4.8-6.8,6.5-10.6l0,0c0.1-0.2,0.2-0.4,0.4-0.6s0.4-0.3,0.6-0.4c0.2-0.1,0.5-0.2,0.8-0.1
				c0.3-0.1,0.7-0.1,1,0l0,0c0.5,0.2,0.9,0.5,1.1,0.9c0.2,0.4,0.3,1,0.1,1.5l0,0c-0.9,2.9-1.6,5.8-2.2,8.8c-0.2,1.1-0.3,2-0.4,2.7
				c0.5-0.5,0.9-1.1,1.2-1.7c1.1-1.9,2-3.9,2.9-6l0,0c3.1-6.8,6.9-15.3,14.4-16.2c0.5-0.1,1.1,0,1.6,0.1c0.5,0.2,1,0.5,1.3,0.9
				c0.5,0.8,0.7,1.6,0.8,2.5c0.1,0.9,0,1.8-0.3,2.6c-0.6,2.7-1.3,5.3-2.2,7.9c-0.6,1.7-1.3,3.9-1.8,5.7c-0.3,1-0.5,1.9-0.5,2.4
				c2.8-1.1,5.3-2.8,7.2-5.1c2.8-3,5.1-6.4,6.9-10.1c0.1-0.2,0.3-0.5,0.5-0.6c0-0.2,0.2-0.4,0.2-0.7c1.3-3.2,3.4-6,6.2-8.1l0,0
				c0.2-0.1,0.4-0.2,0.7-0.3s0.5-0.1,0.7,0c0.2,0,0.5,0.1,0.7,0.3c0.2,0.1,0.4,0.3,0.5,0.5l0,0c0.1,0.1,0.1,0.2,0.2,0.3
				c0.7-0.4,1.4-0.6,2.2-0.7c0.8-0.1,1.7,0.1,2.4,0.4c0.8,0.3,1.4,0.8,2,1.4c1.2,1.4,1.9,3.1,2.1,4.9c0.1,1,0.1,2,0,2.9
				c0,0.5-0.1,1.1-0.3,1.7c2.6-0.5,5.1-1.4,7.4-2.4c1.7-0.6,3.1-1.8,4.1-3.3c0-0.1,0-0.1,0-0.2c0.2-0.4,0.6-0.7,1-0.9
				c0.4-0.2,0.9-0.2,1.4,0h0.2c0.4,0.2,0.8,0.6,0.9,1c0.2,0.4,0.2,0.9,0,1.3c0,0,0,0.1,0,0.1c-1.3,2.4-3.4,4.2-5.9,5.2
				c-3.3,1.5-6.7,2.6-10.3,3.1c-0.9,2.5-2.3,4.8-4,6.8c-1.5,1.8-3.6,2.9-5.9,3.3c-0.9,0.1-1.9,0.1-2.8-0.2c-0.9-0.3-1.7-0.8-2.4-1.5
				c-1.4-1.6-2.2-3.7-2.4-5.8c0-0.1,0-0.2,0-0.2c-1.2,1.6-2.4,3.1-3.8,4.6c-2.5,2.9-5.8,4.9-9.5,5.9c-0.5,0.1-1,0-1.5-0.1
				c-0.5-0.2-0.9-0.5-1.3-0.9l0,0c-0.4-0.7-0.7-1.5-0.8-2.4c-0.1-0.8,0-1.7,0.3-2.5c0.6-2.5,1.3-5,2.2-7.4c0.6-1.8,1.4-4.2,1.9-6.1
				c0.3-0.9,0.5-1.9,0.6-2.9c-2.5,0.7-4.7,2.4-6.1,4.6c-1.9,2.9-3.5,6-4.9,9.3c-1,2.4-2.2,4.7-3.5,6.9c-0.5,0.9-1.1,1.7-2,2.4
				c-0.8,0.6-1.8,1.1-2.8,1.3c-0.4,0.1-0.9,0-1.3-0.2c-0.4-0.2-0.8-0.4-1-0.7c-0.8-1.5-1.1-3.3-0.7-5.1c-0.6,0.9-1.3,1.6-1.9,2.4
				c-2,2.6-4.9,4.5-8.1,5.2c-0.7,0.1-1.5,0-2.2-0.2c-0.7-0.2-1.4-0.6-2-1c-1.2-1-1.9-2.4-2-3.9c-0.1-1.2-0.1-2.4,0.2-3.6
				c-1.4,0.9-2.9,1.7-4.4,2.4l0,0c0.1,0.3,0.2,0.7,0.2,1c0.2,1.7-0.1,3.3-1.1,4.7c-0.5,0.7-1.1,1.2-1.8,1.6
				c-0.7,0.4-1.5,0.7-2.3,0.8c-0.5,0.1-1.1,0-1.6-0.1c-0.5-0.1-1-0.4-1.4-0.7c-0.8-0.7-1.4-1.7-1.5-2.7c-0.1-0.8-0.1-1.6,0.2-2.4
				c0.3-0.8,0.7-1.5,1.3-2c0.8-0.8,1.8-1.5,2.8-2l-1-1.4l-0.1-0.2c-0.9-1.2-1.8-2.5-2.5-3.8c-0.5-0.8-0.9-1.6-1.2-2.4l-1.5,3.4
				l-0.1,0.2c-1.7,4-3.6,7.8-5.9,11.5c-0.7,1.3-1.7,2.4-2.9,3.3s-2.5,1.5-4,1.8c-0.9,0.1-1.8,0-2.7-0.3c-0.9-0.3-1.6-0.8-2.2-1.5
				l0,0c-1.3-2-2-4.4-1.8-6.8c0-0.9,0-1.8,0.1-2.8c-1.9,3.1-4.1,5.9-6.6,8.6c-2.1,2.7-5,4.6-8.4,5.4c-0.9,0.1-1.9,0-2.8-0.3
				c-0.9-0.3-1.7-0.9-2.3-1.6c-1.3-1.6-2-3.5-2.2-5.5C180.4,222.7,175.4,227.8,170.1,232.4L170.1,232.4z"/>
		</g>
		<path class="st2" d="M121.7,54c-0.3-2.2,1.3-4.2,3.5-4.5l0,0c2.2-0.3,4.2,1.3,4.5,3.5l0,0c0.3,2.2-1.3,4.2-3.5,4.5l0,0
			c-0.2,0-0.3,0-0.5,0l0,0C123.7,57.5,121.9,56.1,121.7,54z"/>
	</g>
</g>
</svg>
